<svg xmlns="http://www.w3.org/2000/svg" viewBox="0 0 335.45 119.49"><defs><style>.cls-1,.cls-2{stroke:#000;stroke-miterlimit:10;}.cls-1{stroke-width:0.75px;}</style></defs><g id="Layer_1" data-name="Layer 1"><path class="cls-1" d="M53.5,56.63a16.25,16.25,0,0,1-5.45-7,25.37,25.37,0,0,1-1.92-10.08,36.24,36.24,0,0,1,1-8.29A33.05,33.05,0,0,1,65,8.24c3.53-1.59,6.18-2.38,8-2.38q5.76,0,9,2.26a8.69,8.69,0,0,1,3.83,5.56l-5.21,8.9-.46-.23a12.87,12.87,0,0,0,1.22-5.14,6.78,6.78,0,0,0-3-5.91A12.73,12.73,0,0,0,70.9,9.23q-5.52,0-11.15,4.07T51.43,28.86a41.83,41.83,0,0,0-1.08,8.9q0,8.13,3.8,13.08t10.7,4.94a14.63,14.63,0,0,0,5.33-.88,47.25,47.25,0,0,0,5.56-2.72l.38.77a89.15,89.15,0,0,1-8.59,4.25c-3,1.3-5,2-5.83,2A13.73,13.73,0,0,1,53.5,56.63Z"/><path class="cls-1" d="M115.81,48.93l.14.22q-.86.72-3.38,3.1c-2.35,2.2-4.26,3.9-5.73,5.07s-2.62,1.76-3.49,1.76a1.63,1.63,0,0,1-1.4-.79,7.25,7.25,0,0,1-.54-3.52,31.88,31.88,0,0,1,.14-3.24L108,27.69h-.86c-2.74,7.92-4.94,15.17-8.61,21.75S91.38,59.3,88,59.3a3.65,3.65,0,0,1-3-1.4,6.68,6.68,0,0,1-1.16-4.29,24.27,24.27,0,0,1,1.66-7.84l7.28-22.83-11,7.35-.14-.22q.93-.72,3.39-3.1c2.35-2.2,4.25-3.9,5.72-5.07s1.63-1.77,2.49-1.77a1.64,1.64,0,0,1,1.4.79,7.2,7.2,0,0,1,.54,3.53,29.21,29.21,0,0,1-.14,3.24L89.6,45.62A19.2,19.2,0,0,0,88.23,52a4.81,4.81,0,0,0,.83,3.13,2.38,2.38,0,0,0,1.84,1q3.38,0,8.82-10.76c3.62-7.18,6-15.33,9-24.45h4L104.79,55.7Z"/><path class="cls-1" d="M148.35,23,146,24.74c-1.82,1.54-3,2.3-3.45,2.3s-1.06-.43-2-1.29A16,16,0,0,0,139,24.56a2.15,2.15,0,0,0-1.11-.4q-1.51,0-4.32,5.12a116.32,116.32,0,0,0-5.94,13.07c-2.09,5.3-3,10.66-4.66,16.09h-4l7.21-34.78-10.94,6.7-.14-.22q.93-.72,3.38-3.1,3.52-3.3,5.72-5.07c1.47-1.18,2.63-1.76,3.5-1.76a1.63,1.63,0,0,1,1.4.79,7.3,7.3,0,0,1,.54,3.53,32.17,32.17,0,0,1-.14,3.24L123.57,51.6h.87c1.1-3.94,1.6-8.37,3.5-13.29a98,98,0,0,1,5.83-12.7c2-3.56,3.68-5.33,5.08-5.33a2,2,0,0,1,1,.36,6.93,6.93,0,0,1,1,.72,4.36,4.36,0,0,0,.61.5,18.51,18.51,0,0,0,2.05,1.62,3,3,0,0,0,1.62.54,3.29,3.29,0,0,0,1.4-.32,17.2,17.2,0,0,0,1.7-1Z"/><path class="cls-1" d="M144.16,58.22c-.86-.19-1.63-.33-2.3-.43l2.45-13.9h.44c-.39,2,.42,3.68.42,5,0,3.36.87,5.7,2.63,7a10.39,10.39,0,0,0,6.44,2c3.65,0,6-1.41,7-4.25a6.83,6.83,0,0,0,.5-2.59c0-3.07-3-6.31-6.9-9.72l-.58-.5a22.57,22.57,0,0,1-4.14-4.54,9,9,0,0,1-1.48-5.11,12.84,12.84,0,0,1,.87-4.39,9.87,9.87,0,0,1,4.21-5,13.54,13.54,0,0,1,7.31-1.9,18,18,0,0,1,8.57,2.37l-4,13.32h-.36A29.74,29.74,0,0,0,166.2,29a7.83,7.83,0,0,0-1.8-5.58c-1.2-1.27-3.09-1.91-5.69-1.91a8.81,8.81,0,0,0-4.28,1.08,5.27,5.27,0,0,0-2.63,3.1,7.66,7.66,0,0,0-.43,2.44,8.37,8.37,0,0,0,1.55,4.76,17.62,17.62,0,0,0,4,4.17l.72.51c4.18,3.21,7.27,6.57,7.27,10.08a11.55,11.55,0,0,1-.65,3.6,12.14,12.14,0,0,1-4.36,6,12.58,12.58,0,0,1-7.23,1.94A54.07,54.07,0,0,1,144.16,58.22Z"/><path class="cls-1" d="M190.39,35.76a47.12,47.12,0,0,1-15.12,4.89,25.23,25.23,0,0,0-.21,3.31c0,3.65,1.76,6.61,3.3,8.86a7.87,7.87,0,0,0,7,3.39,7.77,7.77,0,0,0,2.7-.4,11.62,11.62,0,0,0,2.09-1l1.62-1,.36.43q-4,2.67-6.12,3.81a8.1,8.1,0,0,1-3.6,1.16A9.26,9.26,0,0,1,175,55.88q-2.82-3.27-2.81-9.18c0-2.54-.57-5.35.29-8.42a29.49,29.49,0,0,1,5.15-10.73A22,22,0,0,1,184,21.86a11.59,11.59,0,0,1,4.72-1.65c2.83,0,4.8.64,5.9,1.94a6.27,6.27,0,0,1,1.66,4.1Q196.3,32.45,190.39,35.76Zm-14.18.14a34.6,34.6,0,0,0-.72,3.6,33.52,33.52,0,0,0,11.19-3.42,8.53,8.53,0,0,0,5.08-8,5.68,5.68,0,0,0-1-3.34c-.7-1-2.06-1.48-4.07-1.48Q179.53,23.23,176.21,35.9Z"/><path class="cls-1" d="M229.34,4.08l.08-.08L216.74,56.35l12-7.35.14.22q-.85.72-3.38,3.1-3.53,3.32-5.72,5.07c-1.47,1.18-2.63,1.77-3.5,1.77a1.65,1.65,0,0,1-1.4-.79,7.33,7.33,0,0,1-.54-3.53,31.88,31.88,0,0,1,.14-3.24l5-23.91h-.86c-.25.68-.84,2.52-1.8,5.55-2.12,6.43-2.82,11.3-4.12,14.61A32.08,32.08,0,0,1,208.24,56q-2.52,3.19-5.69,3.2-5.48,0-5.47-7.85c0-3.89-.14-8.28,1.59-13.17a40.88,40.88,0,0,1,6.84-12.5q4.25-5.14,8.93-5.14A14.42,14.42,0,0,1,220.92,22l3.74-15.11-9.28.43.14-.43L229,3.79h.44ZM207.77,54.33q1.41-1.57,4.14-8.28c1.83-4.46,3.32-11.49,6.49-21.09a11,11,0,0,0-3-1.91,7.91,7.91,0,0,0-3.17-.68q-3.17,0-5.87,4.57a41.59,41.59,0,0,0-4.32,11c-1.08,4.3-.62,8.15-.62,11.56a11,11,0,0,0,.83,4.68,2.65,2.65,0,0,0,2.48,1.73A4,4,0,0,0,207.77,54.33Z"/><path class="cls-2" d="M7.44,29.48H3.9V29h8.72v.53H9.06a.46.46,0,0,0-.5.49V41.84H7.94V30A.46.46,0,0,0,7.44,29.48Z"/><path class="cls-2" d="M15.66,29h.62v3.73a.48.48,0,0,0,.49.48H23a.48.48,0,0,0,.49-.48V29h.63V41.84h-.63V34.19a.48.48,0,0,0-.49-.48H16.77a.48.48,0,0,0-.49.48v7.65h-.62Z"/><path class="cls-2" d="M28.25,29H36v.53H29.33a.44.44,0,0,0-.46.45v2.79a.44.44,0,0,0,.46.44H36v.55H29.35a.47.47,0,0,0-.48.48v6.63a.48.48,0,0,0,.48.49H36v.53H28.25Z"/><path class="cls-2" d="M3.76,59.36H9.25l8,12.19a2.59,2.59,0,0,0,1.87.91A2.67,2.67,0,0,0,21,71.55l8-12.19h5.59v54h-5.5V73.48c0-1.1-.65-1.73-1.45-1.73a2,2,0,0,0-1.45.8l-7,7.68h-.09l-7-7.57a2,2,0,0,0-1.48-.77c-.76,0-1.39.6-1.39,1.71v39.74H3.76Z"/><path class="cls-2" d="M40.2,99.37v-15c0-8.7,6.2-14.56,15.47-14.56s15.41,5.86,15.41,14.56v15c0,8.79-6.17,14.65-15.41,14.65S40.2,108.16,40.2,99.37Zm15.47,10c6.06,0,10.17-4.14,10.17-10.32V84.75c0-6.15-4.11-10.29-10.17-10.29S45.49,78.6,45.49,84.75V99C45.49,105.21,49.57,109.35,55.67,109.35Z"/><path class="cls-2" d="M76.41,99.37V70.47h5.27V99.4c0,5.92,3.74,9.83,9.29,9.83s9.3-3.91,9.3-9.83V70.47h5.27v28.9c0,8.73-5.84,14.51-14.57,14.51S76.41,108.1,76.41,99.37Z"/><path class="cls-2" d="M111.92,70.47h5.21l15.39,8.92c1.73,1,3,.2,3-1.78V70.47h5.3v42.87h-5.3V90.11c0-1.36-.54-3.6-1.73-4.31l-13.6-7.91c-1.73-1-3-.2-3,1.79v33.66h-5.27Z"/><path class="cls-2" d="M153.4,75h-8.93V70.47H173.1V75h-9.16a2.47,2.47,0,0,0-2.55,2.55v35.84h-5.24V77.67A2.62,2.62,0,0,0,153.4,75Z"/><path class="cls-2" d="M181.2,70.47h8.39l12.1,42.87H196.1l-1.47-4.76a2.79,2.79,0,0,0-2.75-2.07H178.93a2.83,2.83,0,0,0-2.8,2.07l-1.39,4.76h-5.36ZM180.83,102h9.1a2.07,2.07,0,0,0,2.15-2.78L186,76.11c-.12-.43-.34-.77-.74-.77s-.62.34-.71.77l-5.86,23.12A2,2,0,0,0,180.83,102Z"/><path class="cls-2" d="M210.81,70.47v42.87h-5.27V70.47Z"/><path class="cls-2" d="M217.47,70.47h5.21l15.39,8.92c1.73,1,3,.2,3-1.78V70.47h5.3v42.87h-5.3V90.11c0-1.36-.54-3.6-1.73-4.31l-13.6-7.91c-1.73-1-3-.2-3,1.79v33.66h-5.27Z"/><polygon class="cls-2" points="331.05 113.34 313.33 90.5 293.58 80.34 275.64 63 255.74 41.64 241.47 65.93 246.56 65.95 256.51 46.94 258.54 49.28 264.73 62.36 266.91 81.06 252.23 113.34 331.05 113.34"/></g></svg>